<svg viewBox="0 0 24 24" fill="none" xmlns="http://www.w3.org/2000/svg" id="Chef-Hat-Minimalistic--Streamline-Solar-Ar" height="24" width="24">
  <desc>
    Chef Hat Minimalistic Streamline Icon: https://streamlinehq.com
  </desc>
  <path d="m19 18 0.75 0 -0.75 0ZM5 14.584h0.75c0 -0.2981 -0.17655 -0.568 -0.44972 -0.6873L5 14.584Zm14 0 -0.3003 -0.6873c-0.2732 0.1193 -0.4497 0.3892 -0.4497 0.6873l0.75 0ZM15.75 7c0 0.41421 0.3358 0.75 0.75 0.75s0.75 -0.33579 0.75 -0.75h-1.5Zm-9 0c0 0.41421 0.33579 0.75 0.75 0.75s0.75 -0.33579 0.75 -0.75h-1.5ZM7 4.25c-3.17564 0 -5.75 2.57436 -5.75 5.75h1.5c0 -2.34721 1.90279 -4.25 4.25 -4.25v-1.5Zm10 1.5c2.3472 0 4.25 1.90279 4.25 4.25h1.5c0 -3.17564 -2.5744 -5.75 -5.75 -5.75v1.5Zm-2 15.5H9v1.5h6v-1.5Zm-6 0c-0.96401 0 -1.61157 -0.0016 -2.09461 -0.0665 -0.46146 -0.0621 -0.65896 -0.1693 -0.78927 -0.2996l-1.06066 1.0606c0.45547 0.4555 1.02227 0.6412 1.65006 0.7256 0.60622 0.0815 1.37287 0.0799 2.29448 0.0799v-1.5ZM4.25 18c0 0.9216 -0.00159 1.6883 0.07991 2.2945 0.08441 0.6278 0.27008 1.1946 0.72555 1.65l1.06066 -1.0606c-0.13032 -0.1303 -0.23754 -0.3278 -0.29958 -0.7893C5.75159 19.6116 5.75 18.964 5.75 18h-1.5Zm14 0c0 0.964 -0.0016 1.6116 -0.0665 2.0946 -0.0621 0.4615 -0.1693 0.659 -0.2996 0.7893l1.0606 1.0606c0.4555 -0.4554 0.6412 -1.0222 0.7256 -1.65 0.0815 -0.6062 0.0799 -1.3729 0.0799 -2.2945h-1.5ZM15 22.75c0.9216 0 1.6883 0.0016 2.2945 -0.0799 0.6278 -0.0844 1.1946 -0.2701 1.65 -0.7256l-1.0606 -1.0606c-0.1303 0.1303 -0.3278 0.2375 -0.7893 0.2996 -0.483 0.0649 -1.1306 0.0665 -2.0946 0.0665v1.5Zm-8 -17c0.2137 0 0.42326 0.01571 0.6277 0.04593l0.21933 -1.48388C7.57021 4.27114 7.28734 4.25 7 4.25v1.5Zm5 -4.5c-2.31051 0 -4.27058 1.4921 -4.97291 3.56312l1.42054 0.48174C8.94981 3.81402 10.3516 2.75 12 2.75v-1.5ZM7.02709 4.81312C6.84722 5.34352 6.75 5.91118 6.75 6.5h1.5c0 -0.42285 0.0697 -0.82788 0.19763 -1.20514l-1.42054 -0.48174ZM17 4.25c-0.2873 0 -0.5702 0.02114 -0.847 0.06205l0.2193 1.48388c0.2044 -0.03022 0.414 -0.04593 0.6277 -0.04593v-1.5Zm-5 -1.5c1.6484 0 3.0502 1.06402 3.5524 2.54486l1.4205 -0.48174C16.2706 2.7421 14.3105 1.25 12 1.25v1.5Zm3.5524 2.54486c0.1279 0.37726 0.1976 0.78229 0.1976 1.20514h1.5c0 -0.58882 -0.0972 -1.15648 -0.2771 -1.68688l-1.4205 0.48174ZM5.75 18v-3.416h-1.5V18h1.5Zm-0.44972 -4.1033C3.79769 13.2402 2.75 11.7416 2.75 10h-1.5c0 2.359 1.4205 4.3846 3.44972 5.2712l0.60056 -1.3745ZM18.25 14.584l0 3.416 1.5 0 0 -3.416 -1.5 0Zm3 -4.584c0 1.7416 -1.0477 3.2402 -2.5503 3.8967l0.6006 1.3745C21.3295 14.3846 22.75 12.359 22.75 10h-1.5Zm-5.5 -3.5V7h1.5v-0.5h-1.5Zm-9 0V7h1.5v-0.5h-1.5Z" fill="#000000" stroke-width="1.5"></path>
  <path d="M9 18h6" stroke="#000000" stroke-linecap="round" stroke-linejoin="round" stroke-width="1.5"></path>
</svg>